<?xml version="1.0" encoding="utf-8"?>
<!-- Generator: Adobe Illustrator 24.2.0, SVG Export Plug-In . SVG Version: 6.00 Build 0)  -->
<svg version="1.1" id="Layer_1" xmlns="http://www.w3.org/2000/svg" xmlns:xlink="http://www.w3.org/1999/xlink" x="0px" y="0px"
	 viewBox="0 0 200 200" style="enable-background:new 0 0 200 200;" xml:space="preserve">
<style type="text/css">
	.st0{fill:#CCCCCC;}
	.st1{fill:#EEEEEE;}
</style>
<path class="st0" d="M158.3,90.3h-1.2c0.1-1.3,0.2-2.7,0.2-4c0-29.7-24.9-53.7-55.6-53.7c-26.5,0-48.7,18-54.2,42h-1.6
	C25.2,74.6,8.4,91.4,8.4,112v1.6c0,20.7,16.8,37.4,37.4,37.4h32.4h4.2h75.8c16.8,0,30.4-13.6,30.4-30.4l0,0
	C188.7,103.9,175.1,90.3,158.3,90.3z"/>
<path class="st1" d="M93.1,127.5h0.8c-0.1-0.9-0.1-1.7-0.1-2.6c0-19.5,16.3-35.3,36.5-35.3c17.4,0,32,11.8,35.6,27.6h1
	c13.6,0,24.6,11,24.6,24.6v1c0,13.6-11,24.6-24.6,24.6h-21.3h-2.7H93.1c-11,0-20-8.9-20-20l0,0C73.2,136.4,82.1,127.5,93.1,127.5z"
	/>
</svg>
