<?xml version="1.0" encoding="utf-8"?>
<!-- Generator: Adobe Illustrator 24.2.0, SVG Export Plug-In . SVG Version: 6.00 Build 0)  -->
<svg version="1.1" id="Layer_1" xmlns="http://www.w3.org/2000/svg" xmlns:xlink="http://www.w3.org/1999/xlink" x="0px" y="0px"
	 viewBox="0 0 200 200" style="enable-background:new 0 0 200 200;" xml:space="preserve">
<style type="text/css">
	.st0{fill:url(#SVGID_1_);stroke:#FFF9D6;stroke-width:5;stroke-miterlimit:10;}
	.st1{fill:url(#SVGID_2_);}
</style>
<linearGradient id="SVGID_1_" gradientUnits="userSpaceOnUse" x1="123.5" y1="68.7143" x2="123.5" y2="151.682" gradientTransform="matrix(1 0 0 -1 0 202)">
	<stop  offset="0" style="stop-color:#F7B208"/>
	<stop  offset="1" style="stop-color:#FCC529"/>
</linearGradient>
<circle class="st0" cx="123.5" cy="80.6" r="63.2"/>
<linearGradient id="SVGID_2_" gradientUnits="userSpaceOnUse" x1="79.0238" y1="133.2988" x2="114.6367" y2="168.9117">
	<stop  offset="0" style="stop-color:#EEEEEE"/>
	<stop  offset="0.9944" style="stop-color:#DFDFDF"/>
</linearGradient>
<path class="st1" d="M154,125.6h-19.9c0.3-2.1,0.4-4.2,0.4-6.4c0-28.3-23.9-51.2-53.3-51.2c-28.9,0-52.3,22-53.3,49.5
	c-8.9,6.4-14.6,16.8-14.6,28.5v1.5c0,19.4,15.7,35.2,35.2,35.2h30.4h3.9H154c15.8,0,28.5-12.8,28.5-28.5l0,0
	C182.5,138.3,169.8,125.6,154,125.6z"/>
</svg>
