<?xml version="1.0" encoding="utf-8"?>
<!-- Generator: Adobe Illustrator 24.2.0, SVG Export Plug-In . SVG Version: 6.00 Build 0)  -->
<svg version="1.1" id="Layer_1" xmlns="http://www.w3.org/2000/svg" xmlns:xlink="http://www.w3.org/1999/xlink" x="0px" y="0px"
	 viewBox="0 0 200 200" style="enable-background:new 0 0 200 200;" xml:space="preserve">
<style type="text/css">
	.st0{fill:url(#SVGID_1_);}
	.st1{fill:url(#SVGID_2_);}
</style>
<linearGradient id="SVGID_1_" gradientUnits="userSpaceOnUse" x1="-436.1022" y1="95.0729" x2="-468.7567" y2="115.3413" gradientTransform="matrix(-1 0 0 -1 -338.1862 202)">
	<stop  offset="0" style="stop-color:#7AB9F6"/>
	<stop  offset="1" style="stop-color:#9BC4FD"/>
</linearGradient>
<path class="st0" d="M93.6,37.3c8.1-6.6,17.4-10.7,27-12.6c-13.9,20.3-13.5,48,2.7,68.2c16.2,20.1,43.3,26.3,66,17.1
	c-3.9,9-9.9,17.2-18,23.7c-26.6,21.5-65.6,17.3-87.1-9.3C62.8,97.7,67,58.7,93.6,37.3z"/>
<linearGradient id="SVGID_2_" gradientUnits="userSpaceOnUse" x1="68.3638" y1="115.8842" x2="95.3638" y2="148.8842">
	<stop  offset="0" style="stop-color:#EEEEEE"/>
	<stop  offset="0.9944" style="stop-color:#DFDFDF"/>
</linearGradient>
<path class="st1" d="M154,125.6h-19.9c0.3-2.1,0.4-4.2,0.4-6.4c0-28.3-23.9-51.2-53.3-51.2c-28.9,0-52.3,22-53.3,49.5
	c-8.9,6.4-14.6,16.8-14.6,28.5v1.5c0,19.4,15.7,35.2,35.2,35.2h30.4h3.9H154c15.8,0,28.5-12.8,28.5-28.5l0,0
	C182.5,138.3,169.8,125.6,154,125.6z"/>
</svg>
