<?xml version="1.0" encoding="utf-8"?>
<!-- Generator: Adobe Illustrator 24.2.0, SVG Export Plug-In . SVG Version: 6.00 Build 0)  -->
<svg version="1.1" id="Layer_1" xmlns="http://www.w3.org/2000/svg" xmlns:xlink="http://www.w3.org/1999/xlink" x="0px" y="0px"
	 viewBox="0 0 200 200" style="enable-background:new 0 0 200 200;" xml:space="preserve">
<style type="text/css">
	.st0{fill:url(#SVGID_1_);}
	.st1{fill:#AEDEFF;}
</style>
<g>
	
		<linearGradient id="SVGID_1_" gradientUnits="userSpaceOnUse" x1="66.4615" y1="135.1417" x2="115.4615" y2="92.1417" gradientTransform="matrix(1 0 0 -1 0 202)">
		<stop  offset="0" style="stop-color:#EEEEEE"/>
		<stop  offset="0.9944" style="stop-color:#DFDFDF"/>
	</linearGradient>
	<path class="st0" d="M158.3,75.1h-1.2c0.1-1.3,0.2-2.7,0.2-4c0-29.7-24.9-53.7-55.6-53.7c-26.5,0-48.7,18-54.2,42h-1.6
		c-20.7,0-37.4,16.8-37.4,37.4v1.6c0,20.7,16.8,37.4,37.4,37.4h32.4h4.2h75.8c16.8,0,30.4-13.6,30.4-30.4l0,0
		C188.7,88.7,175.1,75.1,158.3,75.1z"/>
	<g>
		<path class="st1" d="M101.6,148.6H17.2c-4.7,0-8.5-3.8-8.5-8.5v0c0-4.7,3.8-8.5,8.5-8.5h84.4c4.7,0,8.5,3.8,8.5,8.5v0
			C110.1,144.8,106.3,148.6,101.6,148.6z"/>
		<path class="st1" d="M83.8,157.1c0-4.7,3.8-8.5,8.5-8.5H40.7c4.7,0,8.5,3.8,8.5,8.5c0,4.7-3.8,8.5-8.5,8.5h51.6
			C87.6,165.6,83.8,161.8,83.8,157.1z"/>
		<path class="st1" d="M139.2,182.6h-106c-4.7,0-8.5-3.8-8.5-8.5v0c0-4.7,3.8-8.5,8.5-8.5h106c4.7,0,8.5,3.8,8.5,8.5v0
			C147.7,178.8,143.9,182.6,139.2,182.6z"/>
	</g>
	<path class="st1" d="M183,159.2h-58.3c-4.7,0-8.5-3.8-8.5-8.5v0c0-4.7,3.8-8.5,8.5-8.5H183c4.7,0,8.5,3.8,8.5,8.5v0
		C191.5,155.4,187.7,159.2,183,159.2z"/>
	<path class="st1" d="M108.6,121.9H62.1c-4.7,0-8.5-3.8-8.5-8.5v0c0-4.7,3.8-8.5,8.5-8.5h46.5c4.7,0,8.5,3.8,8.5,8.5v0
		C117.1,118.1,113.3,121.9,108.6,121.9z"/>
	<path class="st1" d="M160.1,133.9h-24.7c-4.7,0-8.5-3.8-8.5-8.5v0c0-4.7,3.8-8.5,8.5-8.5h24.7c4.7,0,8.5,3.8,8.5,8.5v0
		C168.6,130,164.8,133.9,160.1,133.9z"/>
</g>
</svg>
