<?xml version="1.0" encoding="utf-8"?>
<!-- Generator: Adobe Illustrator 24.2.0, SVG Export Plug-In . SVG Version: 6.00 Build 0)  -->
<svg version="1.1" id="Layer_1" xmlns="http://www.w3.org/2000/svg" xmlns:xlink="http://www.w3.org/1999/xlink" x="0px" y="0px"
	 viewBox="0 0 200 200" style="enable-background:new 0 0 200 200;" xml:space="preserve">
<style type="text/css">
	.st0{fill:#CCCCCC;}
	.st1{fill:none;stroke:#7AB9F6;stroke-width:9;stroke-linecap:round;stroke-miterlimit:10;}
	.st2{fill:none;stroke:#7AB9F6;stroke-width:8;stroke-linecap:round;stroke-miterlimit:10;}
</style>
<g>
	<path class="st0" d="M159.7,74.6h-1.2c0.1-1.3,0.2-2.7,0.2-4c0-29.7-24.9-53.7-55.6-53.7c-26.5,0-48.7,18-54.2,42h-1.6
		c-20.7,0-37.4,16.8-37.4,37.4v1.6c0,20.7,16.8,37.4,37.4,37.4h32.4h4.2h75.8c16.8,0,30.4-13.6,30.4-30.4v0
		C190.1,88.2,176.5,74.6,159.7,74.6z"/>
	<g>
		<line class="st1" x1="52.6" y1="147.1" x2="40.1" y2="173.8"/>
		<line class="st1" x1="85.5" y1="156.3" x2="73" y2="183.1"/>
	</g>
	<g>
		<line class="st2" x1="134.1" y1="145.6" x2="134.1" y2="180.5"/>
		<line class="st2" x1="121.8" y1="150.7" x2="146.5" y2="175.4"/>
		<line class="st2" x1="116.7" y1="163.1" x2="151.6" y2="163.1"/>
		<line class="st2" x1="121.8" y1="175.4" x2="146.5" y2="150.7"/>
	</g>
</g>
</svg>
