<?xml version="1.0" encoding="utf-8"?>
<!-- Generator: Adobe Illustrator 24.2.0, SVG Export Plug-In . SVG Version: 6.00 Build 0)  -->
<svg version="1.1" id="Layer_1" xmlns="http://www.w3.org/2000/svg" xmlns:xlink="http://www.w3.org/1999/xlink" x="0px" y="0px"
	 viewBox="0 0 200 200" style="enable-background:new 0 0 200 200;" xml:space="preserve">
<style type="text/css">
	.st0{fill:#CCCCCC;}
	.st1{fill:none;stroke:#7AB9F6;stroke-width:8;stroke-linecap:round;stroke-miterlimit:10;}
</style>
<g>
	<path class="st0" d="M159.7,76.9h-1.2c0.1-1.3,0.2-2.7,0.2-4c0-29.7-24.9-53.7-55.6-53.7c-26.5,0-48.7,18-54.2,42h-1.6
		C26.7,61.2,9.9,78,9.9,98.6v1.6c0,20.7,16.8,37.4,37.4,37.4h32.4h4.2h75.8c16.8,0,30.4-13.6,30.4-30.4v0
		C190.1,90.5,176.5,76.9,159.7,76.9z"/>
	<g>
		<g>
			<line class="st1" x1="100" y1="149.8" x2="100" y2="180.8"/>
			<line class="st1" x1="89" y1="154.4" x2="111" y2="176.3"/>
			<line class="st1" x1="84.5" y1="165.3" x2="115.5" y2="165.3"/>
			<line class="st1" x1="89" y1="176.3" x2="111" y2="154.4"/>
		</g>
		<g>
			<line class="st1" x1="146" y1="149.8" x2="146" y2="180.8"/>
			<line class="st1" x1="135" y1="154.4" x2="156.9" y2="176.3"/>
			<line class="st1" x1="130.5" y1="165.3" x2="161.5" y2="165.3"/>
			<line class="st1" x1="135" y1="176.3" x2="156.9" y2="154.4"/>
		</g>
		<g>
			<line class="st1" x1="54" y1="149.8" x2="54" y2="180.8"/>
			<line class="st1" x1="43.1" y1="154.4" x2="65" y2="176.3"/>
			<line class="st1" x1="38.5" y1="165.3" x2="69.5" y2="165.3"/>
			<line class="st1" x1="43.1" y1="176.3" x2="65" y2="154.4"/>
		</g>
	</g>
</g>
</svg>
