<?xml version="1.0" encoding="utf-8"?>
<!-- Generator: Adobe Illustrator 24.2.0, SVG Export Plug-In . SVG Version: 6.00 Build 0)  -->
<svg version="1.1" id="Layer_1" xmlns="http://www.w3.org/2000/svg" xmlns:xlink="http://www.w3.org/1999/xlink" x="0px" y="0px"
	 viewBox="0 0 200 200" style="enable-background:new 0 0 200 200;" xml:space="preserve">
<style type="text/css">
	.st0{fill:#F21C82;stroke:#CCCCCC;stroke-width:8;stroke-miterlimit:10;}
	.st1{fill:none;stroke:#CCCCCC;stroke-width:8;stroke-linecap:round;stroke-miterlimit:10;}
	.st2{fill:#7AB9F6;}
	.st3{fill:#99C6FC;}
</style>
<g>
	<g>
		<line class="st0" x1="100" y1="49" x2="100" y2="162.2"/>
		<path class="st0" d="M100,159.3"/>
		<path class="st1" d="M124.6,162.2c0,6.8-5.5,12.3-12.3,12.3S100,169,100,162.2"/>
	</g>
	<g>
		<path class="st2" d="M178.5,87.6c-4.5-1-9.5-1.6-14.9-1.6c-15.4,0-28.4,4.8-33.1,11.5c-5.5-5.9-17.7-10-31.9-10
			c-14.7,0-27.3,4.4-32.5,10.7C60.9,92,48.3,87.5,33.6,87.5c-4.2,0-8.3,0.4-12.1,1c7.9-35.9,39.8-62.8,78-63.1c0.2,0,0.4,0,0.6,0
			s0.4,0,0.6,0C138.6,25.7,170.2,52.2,178.5,87.6z"/>
		<path class="st3" d="M130.5,97.5c-5.5-5.9-17.7-10-31.9-10c-14.7,0-27.3,4.4-32.5,10.7c0,0,9.1-71.7,33.4-72.8c0.2,0,0.4,0,0.6,0
			s0.4,0,0.6,0C125,26.6,130.5,97.5,130.5,97.5z"/>
	</g>
</g>
</svg>
